<?xml version="1.0" encoding="iso-8859-1"?>
<!-- Generator: Adobe Illustrator 21.1.0, SVG Export Plug-In . SVG Version: 6.00 Build 0)  -->
<svg version="1.1" id="_x39_" xmlns="http://www.w3.org/2000/svg" xmlns:xlink="http://www.w3.org/1999/xlink" x="0px" y="0px"
	 viewBox="0 0 512 512" style="enable-background:new 0 0 512 512;" xml:space="preserve">
<g>
	<g>
		<path style="fill:#231815;" d="M254.43,156.387c16.648,6.101,31.596,15.672,43.86,28.497c5.57,5.825,10.601,12.15,15.139,18.807
			c2.224,3.262,4.334,6.618,6.259,10.066c0.645,1.155,2.249,6.186,3.142,6.615c-1.005-0.482-2.416-2.978-3.116-3.783
			c-1.614-1.855-3.241-3.701-4.823-5.583c-3.812-4.536-7.392-9.261-11.146-13.843c-6.603-8.061-14.183-15.591-22.84-21.447
			c-5.997-4.056-11.86-8.299-18.442-11.375c-5.201-2.431-10.627-4.359-16.08-6.137c-1.537-0.501-12.133-2.896-12.275-4.74
			C234.061,152.858,252.331,155.937,254.43,156.387z"/>
		<path style="fill:#231815;" d="M328.319,199.698c-1.818,0.742-14.803,7.483-10.742,10.157c1.66,1.093,6.873-1.499,8.46-2.083
			c3.029-1.114,6.033-2.295,9.084-3.35c13.672-4.73,27.862-8.018,42.283-9.318c7.182-0.648,14.41-0.8,21.61-0.378
			c6.837,0.401,14.684,0.646,20.796,4.073c13.695,7.679,8.767,27.539,5.873,39.786c-3.145,13.311-9.035,28.197-7.026,42.065
			c0.444,3.067,1.506,6.235,3.682,8.528c1.015,1.07,4.235,3.699,4.995,1.312c0.351-1.101-1.345-3.916-1.655-4.938
			c-0.805-2.653-1.12-5.423-1.181-8.187c-0.293-13.349,2.928-26.844,5.587-39.833c2.544-12.43,6.38-29.539-4.387-39.317
			c-6.129-5.567-14.723-6.207-22.572-6.955c-8.715-0.831-17.486-1.098-26.236-0.804
			C360.683,191.001,343.301,193.092,328.319,199.698z"/>
		<path style="fill:#231815;" d="M327.556,274.497c11.324-7.561,24.398-12.376,36.892-17.607c6.215-2.602,12.48-5.185,18.443-8.333
			c2.911-1.536,5.778-3.208,8.34-5.288c0.538-0.437,5.245-4.594,4.885-5.15c1.002,1.55-4.543,7.354-5.535,8.287
			c-3.06,2.88-6.741,5.07-10.469,6.964c-8.751,4.445-17.935,7.981-26.8,12.186c-7.007,3.323-14.289,5.824-20.942,9.89
			c-3.623,2.214-7.119,4.72-10.084,7.779c-0.371,0.383-4.561,5.28-4.586,5.247c-1.127-1.452,2.898-6.536,3.685-7.57
			C323.171,278.557,325.281,276.375,327.556,274.497z"/>
		<path style="fill:#231815;" d="M224.726,334.675c-21.465-0.568-42.614-7.454-60.485-19.321
			c-8.508-5.649-16.285-12.445-22.734-20.381c-1.265-1.557-13.72-19.017-11.496-20.333c-0.529,0.313,18.959,21.487,20.687,23.136
			c9.294,8.867,20.038,16.153,31.912,21.108c8.98,3.747,18.766,7.285,28.364,8.965c10.917,1.911,21.902,1.163,32.845,0.023
			c0.98-0.102,4.556-0.877,5.099-0.063c0.7,1.049-6.087,2.956-6.658,3.131C236.528,332.703,230.685,333.981,224.726,334.675z"/>
		<path style="fill:#231815;" d="M197.6,118.878c6.488-11.55,13.459-22.834,18.145-35.283c0.742-1.97,3.234-6.759,2.909-8.914
			c-0.226-1.499-1.559-2.613-2.695-3.608c-4.689-4.107-10.663-6.933-16.292-9.493c-10.259-4.665-21.618-11.278-33.247-9.427
			c-6.039,0.961-11.942,2.657-17.945,3.806c-3.939,0.754-10.807,2.664-14.493,0.3c1.529,0.98,5.331-0.049,6.957-0.398
			c3.26-0.699,6.439-1.767,9.613-2.772c5.967-1.891,12.041-4.057,18.28-4.832c6.835-0.849,14.625,1.765,20.788,4.585
			c6.511,2.979,13.226,5.55,19.564,8.904c4.471,2.366,13.378,6.52,13.909,12.373c0.46,5.078-3.277,11.795-5.379,16.265
			c-3.763,8.003-8.135,15.711-12.532,23.378c-3.665,6.391-7.377,12.831-10.204,19.649c-0.99,2.386-1.881,4.82-2.568,7.312
			c-0.54,1.958-0.515,7.162-1.937,8.569c-0.211,0.209-0.51-4.978-0.466-5.584c0.25-3.45,0.959-6.857,1.937-10.17
			C193.433,128.496,195.481,123.682,197.6,118.878z"/>
		<path style="fill:#231815;" d="M255.342,109.227c-5.438,14.22-11.216,27.975-12.934,43.217c-0.277,2.454-1.035,4.093-2.264,0.923
			c-1.327-3.421-1.119-7.577-0.654-11.139c1.104-8.458,4.493-16.683,7.541-24.59c5.859-15.194,14.356-32.018,12.959-48.755
			c-1.541-18.461-18.5-26.177-34.179-30.987c-9.033-2.771-18.245-4.931-27.245-7.816c-4.69-1.504-9.388-3.163-13.799-5.372
			c-1.59-0.796-3.152-1.669-4.635-2.65c-0.463-0.306-3.477-3.172-3.642-3.164c1.861-0.092,4.992,2.367,6.772,3.124
			c3.32,1.412,6.751,2.529,10.233,3.464c6.325,1.698,12.775,2.867,19.197,4.127c12.867,2.524,26.452,5.239,37.529,12.657
			c11.46,7.674,16.695,19.995,15.44,33.577C264.585,87.498,259.758,98.52,255.342,109.227z"/>
		<path style="fill:#231815;" d="M130.819,158.415c-16.008-0.891-32.22-1.429-47.929,2.363c-7.418,1.791-14.86,4.14-21.758,7.431
			c-1.06,0.506-12.268,6.508-11.051,8.341c-1.263-1.903,5.617-7.656,6.827-8.555c4.146-3.082,8.96-5.163,13.797-6.893
			c10.566-3.781,21.56-6.078,32.749-6.935c7.087-0.542,14.422,0.269,21.507,0.576c5.215,0.226,10.431,0.448,15.639,0.818
			c0.62,0.044,9.019,1.045,8.835,1.327c-0.97,1.488-9.471,0.938-11.229,1.051C135.744,158.098,133.281,158.257,130.819,158.415z"/>
		<path style="fill:#231815;" d="M81.748,224.532c6.689,7.627,13.849,14.844,20.999,22.035c3.618,3.639,7.285,7.231,10.854,10.918
			c1.325,1.369,2.648,2.743,3.932,4.152c0.611,0.67,2.204,3.348,2.763,3.485c-1.237-0.303-3.061-1.933-4.132-2.615
			c-3.145-2.001-6.006-4.375-8.729-6.914c-5.566-5.187-11.155-10.407-16.598-15.723c-2.268-2.215-4.149-4.813-6.252-7.182
			c-2.783-3.134-5.689-6.156-8.446-9.314c-0.78-0.893-4.624-4.339-4.488-5.698C71.685,217.328,80.871,223.848,81.748,224.532z"/>
		<path style="fill:#231815;" d="M105.279,280.348c-0.262,21.668-1.354,44.884-9.658,65.17c-4.1,10.015-10.54,19.348-16.928,28.037
			c-2.692,3.662-5.586,7.188-8.867,10.341c-1.451,1.394-2.972,2.72-4.592,3.916c-0.418,0.308-4.234,2.264-4.307,2.614
			c0.163-0.779,3.138-2.649,3.757-3.262c1.915-1.9,3.667-3.982,5.334-6.102c2.779-3.535,5.275-7.294,7.73-11.057
			c7.017-10.752,13.945-21.34,17.521-33.793c2.637-9.181,3.665-18.762,4.914-28.207c1.132-8.56,1.625-17.189,1.676-25.821
			c0.034-5.898-0.071-11.805-0.5-17.689c-0.07-0.968-0.433-9.769-0.928-9.982c1.357,0.694,1.795,4.356,2.106,5.678
			c0.625,2.654,1.076,5.349,1.458,8.048C104.564,272.254,104.965,276.302,105.279,280.348z"/>
		<path style="fill:#231815;" d="M143.893,319.735c-4.946,19.701-13.978,38.606-26.146,54.86
			c-5.795,7.741-12.369,14.674-19.578,21.1c-3.237,2.886-6.78,5.637-10.37,8.075c-1.831,1.243-6.896,5.632-9.144,5.412
			c0.634,0.062,3.028-2.479,3.548-2.916c2.39-2.009,4.753-4.034,7.045-6.154c4.77-4.413,9.605-8.767,14.106-13.462
			c8.425-8.787,15.782-18.793,21.558-29.513c4.741-8.8,9.202-17.904,12.481-27.351c1.981-5.708,3.512-11.608,4.74-17.521
			c0.661-3.184,1.245-6.378,1.791-9.582c0.1-0.588,1.532-7.217,1.611-7.143c1.528,1.452,0.077,9.29-0.06,11.271
			C145.174,311.146,144.554,315.445,143.893,319.735z"/>
		<path style="fill:#231815;" d="M143.326,48.028c2.607-0.473,6.159-1.478,6.389-4.607c0.267-3.634-4.105-7.32-6.554-9.4
			c-3.063-2.601-6.447-4.815-9.874-6.902c-0.6-0.365-7.683-4.726-7.739-4.67c0.423-0.423,5.228,1.271,5.748,1.445
			c2.252,0.753,4.369,1.809,6.409,3.018c4.734,2.804,9.821,6.35,13.071,10.885c2.965,4.138,2.507,8.84-2.192,11.401
			c-2.626,1.431-11.79,3.935-14.493,1.267c-0.169-0.166,4.809-1.142,5.195-1.228C140.657,48.93,142.014,48.533,143.326,48.028z"/>
		<path style="fill:#231815;" d="M152.862,26.434c-3.216-5.488-9.768-8.701-15.176-11.566c-1.159-0.614-11.052-4.864-10.759-6.432
			c0.228-1.222,16.653,6.431,17.819,7.052c3.035,1.617,5.331,3.403,7.671,5.942c1.418,1.538,6.923,8.148,4.186,10.603
			C156.388,32.225,153.804,26.064,152.862,26.434z"/>
		<path style="fill:#231815;" d="M161.331,23.937c-3.032-4.054-7.084-7.392-11.085-10.445c-2.037-1.555-4.138-3.021-6.24-4.485
			c-0.885-0.616-4.148-2.199-4.442-3.355c0.021,0.084,6.198,1.749,6.673,1.999c3.463,1.825,6.686,4.334,9.825,6.665
			c1.979,1.47,3.407,3.228,5.027,5.07c1.183,1.345,6.253,6.059,5.291,8.379C166.291,27.98,161.95,24.385,161.331,23.937z"/>
		<path style="fill:#231815;" d="M170.258,19.782c-2.299-4.872-7.515-8.133-11.719-11.182c-1.732-1.256-9.468-5.843-9.227-8.6
			c-0.025,0.284,5.366,2.791,5.653,2.968c3.426,2.113,6.749,4.479,10.073,6.754c2.334,1.598,4.033,3.471,5.718,5.751
			c1.128,1.526,5.242,7.662,2.682,9.555C173.624,24.891,170.605,20.147,170.258,19.782z"/>
		<path style="fill:#231815;" d="M55.542,392.152c-4.522-1.734-9.458-2.585-14.277-2.887c-2.226-0.14-4.445-0.067-6.672-0.008
			c-0.994,0.026-4.402,0.621-5.196-0.083c-0.106-0.094,4.014-2.326,4.303-2.423c2.811-0.952,6.049-0.809,8.985-0.736
			c2.746,0.068,5.371,0.086,7.965,0.964c1.992,0.675,10.276,2.069,10.793,4.477C61.821,393.224,56.97,392.134,55.542,392.152z"/>
		<path style="fill:#231815;" d="M43.291,397.38c7.486,4.909,1.714,15.454-2.505,20.423c-2.502,2.946-5.538,5.591-9.001,7.343
			c-0.528,0.267-7.905,2.424-7.694,1.631c0.027-0.103,3.511-1.575,3.716-1.696c1.592-0.944,3.129-2,4.611-3.108
			c3.572-2.671,6.757-5.888,8.882-9.844c1.268-2.361,3.035-5.868,2.723-8.626c-0.255-2.249-1.739-3.585-3.687-4.531
			c-1.412-0.686-4.972-0.854-5.941-2.036c-0.403-0.492,4.508-0.545,4.762-0.522C40.588,396.543,41.96,396.827,43.291,397.38z"/>
		<path style="fill:#231815;" d="M52.933,414.618c-2.444,3.79-4.503,7.84-7.33,11.375c-1.328,1.66-2.824,3.285-4.557,4.532
			c-0.064,0.046-2.666,1.612-2.656,1.335c0.094-2.473,4.065-6.021,5.34-7.832c1.44-2.045,2.425-4.333,3.834-6.367
			c1.402-2.022,3.146-6.565,5.406-7.63C55.243,408.96,53.192,413.37,52.933,414.618z"/>
		<path style="fill:#231815;" d="M61.536,417.487c-1.862,3.501-4.395,6.678-7.009,9.643c-1.092,1.238-2.218,2.457-3.411,3.598
			c-0.544,0.52-2.577,1.722-2.791,2.061c1.044-1.566,1.136-3.541,2.371-5.206c1.492-2.011,3.034-3.969,4.489-6.007
			c0.861-1.207,5.717-9.07,6.369-8.805C62.278,413.065,61.633,416.723,61.536,417.487z"/>
		<path style="fill:#231815;" d="M75.641,413.779c-3.329,3.32-5.657,7.561-8.473,11.295c-1.149,1.523-6.411,8.784-9.095,7.63
			c0.286,0.123,5.759-7.612,6.118-8.103c1.728-2.361,2.947-5.092,4.729-7.391c1.908-2.462,4.281-5.581,6.841-7.296
			c0.607-0.407,2.278-1.637,2.766-0.703C78.612,409.374,75.843,413.347,75.641,413.779z"/>
		<path style="fill:#231815;" d="M277.48,390.728c-6.868-4.424-13.304-8.718-18.985-14.649c-6.56-6.849-12.544-14.247-18.595-21.541
			c-4.452-5.366-8.523-11.375-13.341-16.403c-2.49-2.598-6.418-6.566-10.258-6.813c-4.818-0.31-3.193,4.279-1.396,6.751
			c4.101,5.642,10.159,9.351,15.084,14.184c6.631,6.508,12.853,13.413,19.335,20.067c6.068,6.229,12.25,11.954,19.675,16.513
			c6.066,3.725,11.983,7.693,17.848,11.727c14.85,10.212,34.946,24.254,36.571,43.931c-0.039,18.801,14.383,37.878,27.945,50.072
			c6.484,5.83,13.744,10.888,21.807,14.273c3.428,1.439,7.304,2.987,11.055,3.158c2.047,0.094,9.917-1.535,6.229-4.42
			c-2.359-1.846-7.43-1.277-10.238-1.763c-3.825-0.663-7.465-1.949-10.953-3.65c-8.678-4.231-16.357-10.651-22.837-17.75
			c-6.78-7.427-12.701-15.953-16.431-25.332c-3.327-8.366-2.481-17.46-6.099-25.662C315.353,414.051,294.519,401.768,277.48,390.728
			z"/>
		<path style="fill:#231815;" d="M308.026,304.973c-5.93,7.287,1.689,16.022,6.539,21.257c5.366,5.792,10.717,11.819,15.258,18.28
			c5.809,8.264,9.289,18.168,13.509,27.299c3.471,7.51,6.917,15.064,10.823,22.361c4.067,7.596,8.468,14.756,8.89,23.576
			c0.443,9.256-1.322,18.205-0.125,27.447c0.555,4.288-0.415,8.454,0.811,12.791c1.148,4.061,3.418,7.581,6.367,10.562
			c6.03,6.094,14.556,9.273,22.728,11.268c8.111,1.98,16.376,1.627,24.494,3.221c5.135,1.008,1.614,3.334-1.654,4.151
			c-4.497,1.124-9.419,0.62-13.928-0.145c-15.175-2.573-34.233-9.172-40.829-24.342c-1.871-4.304-2.538-9.053-2.204-13.72
			c0.197-2.755-0.341-5.179-0.499-7.939c-0.512-8.948,2-17.817,1.196-26.771c-0.635-7.076-4.374-13.354-7.43-19.643
			c-4.417-9.089-8.974-18.11-13.487-27.151c-4.456-8.926-8.671-17.47-14.802-25.384c-6.317-8.155-16.057-12.843-22.416-21.016
			c-5.533-7.111-7.581-17.752,0.177-24.265c2.875-2.413,7.654-3.374,10.221,0.248c1.39,1.961,0.454,1.71-1.027,3.009
			C309.183,301.343,308.181,303.001,308.026,304.973z"/>
		<path style="fill:#231815;" d="M389.251,486.534c0.602,1.067,2.358,0.249,1.675,2.341c-0.314,0.961-1.151,1.221-2.028,1.168
			C386.876,489.919,387.715,487.67,389.251,486.534z"/>
		<path style="fill:#231815;" d="M395.845,489.64c4.058,2.034,8.836,2.511,13.225,3.417c0.52,0.107,8.743,2.75,8.325,3.12
			c-2.659,2.358-11.778-0.167-14.881-0.688c-1.689-0.283-13.368-4.107-11.767-6.155C391.144,488.827,395.163,489.65,395.845,489.64z
			"/>
		<path style="fill:#231815;" d="M389.845,495.194c4.058,2.034,8.836,2.511,13.225,3.418c0.522,0.108,8.738,2.754,8.324,3.12
			c-2.672,2.355-11.768-0.165-14.881-0.687c-1.69-0.283-13.366-4.108-11.767-6.155C385.144,494.38,389.161,495.205,389.845,495.194z
			"/>
		<path style="fill:#231815;" d="M383.812,257.925c3.356,9.524,3.245,19.893,6.536,29.468c3.405,9.906,9.975,20.829,19.09,26.469
			c8.109,5.018,19.105,5.696,28.405,5.598c10.547-0.112,20.5,0.563,30.508,4.115c-0.006-0.463-30.425,0.429-33.717,0.255
			c-13.232-0.701-25.268-3.863-34.661-13.662c-8.266-8.623-14.415-19.547-17.436-31.1c-1.553-5.938-3.331-12.596-2.293-18.783
			C380.63,257.975,382.293,253.306,383.812,257.925z"/>
		<path style="fill:#231815;" d="M447.09,308.028c7.93,0.426,15.904,0.558,23.686,2.318c3.519,0.796,7.007,1.892,10.177,3.642
			c0.413,0.228,5.802,3.863,5.278,4.251c-0.167,0.124-2.866-1.006-3.261-1.124c-2.548-0.764-5.094-1.55-7.644-2.3
			c-5.193-1.527-10.289-2.007-15.651-2.3c-2.101-0.115-4.142-0.575-6.243-0.764c-3.065-0.275-6.144-0.225-9.212-0.432
			c-1.383-0.094-4.783,0.082-5.74-1.132C438.316,309.979,446.023,308.25,447.09,308.028z"/>
		<path style="fill:#231815;" d="M450.826,297.989c7.361-0.454,14.843-0.274,22.137,0.865c3.603,0.563,7.206,1.364,10.618,2.668
			c0.328,0.125,7.394,3.568,6.836,4.081c-0.513,0.471-7.687-1.511-8.356-1.651c-5.365-1.124-10.613-2.229-16.122-2.287
			c-3.378-0.036-6.702-0.488-10.077-0.491c-2.668-0.002-5.324,0.285-7.98,0.505c-1.104,0.091-4.111,0.79-5.145,0.065
			C442.333,301.46,449.812,298.306,450.826,297.989z"/>
		<path style="fill:#231815;" d="M145.674,135.44c-4.814-6.118-10.165-13.477-18.885-8.939c-3.432,1.786-5.888,5.041-7.95,8.218
			c-0.596,0.918-4.414,6.05-4.245,6.822c-0.377-1.728,0.862-4.941,1.451-6.64c1.054-3.037,2.81-5.814,5.069-8.1
			c4.015-4.064,9.729-6.156,15.394-4.761c4.653,1.146,7.257,5.31,9.996,8.916c0.518,0.681,8.497,9.224,8.534,9.179
			C153.711,141.736,146.801,136.402,145.674,135.44z"/>
		<path style="fill:#231815;" d="M89.767,143.156c-9.669,1.334-19.373,3.34-28.539,6.747c-7.903,2.938-17.108,6.825-19.507,15.686
			c-2.086,7.705-0.373,13.62,3.668,20.469c2.218,3.759,4.815,7.309,7.575,10.685c0.757,0.926,5.427,7.468,6.329,7.344
			c-1.012,0.14-4.772-3.719-5.504-4.341c-2.133-1.814-4.136-3.759-5.988-5.86c-4.311-4.893-8.407-10.808-9.925-17.233
			c-1.344-5.688,0.034-13.2,3.298-18.052c3.431-5.1,9.613-8.28,15.063-10.771c7.787-3.56,16.702-5.127,25.064-6.69
			c6.463-1.208,12.981-2.18,19.543-2.648c1.381-0.098,10.035-1.233,10.726,0.158c0.018,0.036-10.852,2.154-11.735,2.324
			C96.463,141.622,93.104,142.343,89.767,143.156z"/>
		<path style="fill:#231815;" d="M119.56,161.668c-9.958,0.192-19.588,1.516-29.086,4.556c-8.307,2.659-17.41,5.39-24.109,11.239
			c-5.998,5.237-9.013,14.297-7.286,22.104c0.892,4.032,3.142,7.589,5.793,10.7c0.816,0.958,5.924,7.317,6.93,7.137
			c-0.904,0.162-4.115-2.776-4.943-3.386c-2.325-1.713-4.521-3.604-6.343-5.854c-3.883-4.795-5.534-10.656-4.693-16.774
			c1.783-12.967,11.27-19.954,22.605-24.749c9.665-4.089,19.569-6.651,30.014-7.693c6.579-0.656,13.194-0.853,19.801-0.661
			c1.66,0.048,13.442-0.453,14.191,1.403c0.03,0.074-10.979,0.96-12.008,1.029C126.798,160.959,123.173,161.26,119.56,161.668z"/>
		<path style="fill:#231815;" d="M439.831,290.774c7.383-1.483,13.236-3.652,20.992-2.822c0.611,0.065,16.127,3.294,15.527,4.431
			c-0.361,0.684-7.045-0.031-7.653-0.096c-4.959-0.534-9.73-1.612-14.75-0.984c-3.07,0.384-6.232,0.722-9.211,1.578
			c-2.228,0.64-10.887,3.724-12.167-0.093C432.704,293.192,438.932,291.268,439.831,290.774z"/>
		<path style="fill:#231815;" d="M166.029,139.86c5.158,0.721,10.482-0.127,15.656-0.245c1.613-0.037,8.662-0.633,9.701,1.31
			c0.231,0.432-8.303,1.792-8.618,1.815c-3.258,0.243-6.647,1.097-9.899,1.092c-3.057-0.004-7.179-0.088-9.989-1.127
			c-1.303-0.482-3.129-1.243-1.495-2.127C162.396,140.033,164.797,140.216,166.029,139.86z"/>
		<path style="fill:#231815;" d="M125.271,139.165c0.839-0.839,11.402-8.932,12.543-5.046c0.391,1.33-6.374,4.369-7.456,6.065
			c2.483,0.829,5.015,1.719,7.337,2.938c2.453,1.289,4.14,3.586,0.019,3.123c-2.027-0.228-4.082-1.38-6.043-1.925
			c-1.529-0.425-3.083-0.747-4.662-0.922c-1.13-0.125-3.184,0.25-4.2-0.274C120.07,141.712,123.396,140.143,125.271,139.165z"/>
		<path style="fill:#231815;" d="M203.225,112.76c4.179,3.705,11.976,6.369,12.086,12.948c0.118,7.073-7.31,8.506-12.805,9.284
			c-4.035,0.572-10.276,1.569-8.794-4.42c0.783-3.162,2.531-6.243,3.821-9.228C198.81,118.388,200.291,114.48,203.225,112.76z"/>
		<path style="fill:#231815;" d="M217.092,87.437c5.535,0.996,6.167,8.062,6.44,12.672c0.283,4.766-2.075,6.813-6.719,7.176
			c-3.862,0.302-9.54,0.497-7.718-4.676c0.964-2.738,2.387-5.295,3.351-8.05C213.408,91.813,214.386,88.938,217.092,87.437z"/>
		<path style="fill:#231815;" d="M102.708,291.35c6.707,0.76,12.559-2.893,14.327-9.482c0.671-2.5,1.268-6.586-0.111-8.947
			c-1.132-1.938-3.841-2.785-5.437-4.328c-1.935-1.872-3.813-5.834-6.848-6.115c-2.203-0.204-1.704,1.137-1.651,3.174
			c0.043,1.629,0.22,3.253,0.408,4.871C104.121,276.75,106.669,285.723,102.708,291.35z"/>
		<path style="fill:#231815;" d="M105.552,304.491c4.466,1.225,8.153,3.923,9.274,8.599c1.155,4.818-0.287,9.249-5.371,10.531
			c-1.83,0.462-4.78,0.878-6.61,0.263c-1.669-0.56-1.437-0.211-1.534-2.202c-0.062-1.264-0.135-2.527-0.158-3.792
			C101.069,313.342,101.169,307.214,105.552,304.491z"/>
		<path style="fill:#231815;" d="M286.429,334.637c-9.224,3.48-18.986,11.054-15.882,22.189c1.256,4.507,5.363,5.795,9.135,2.857
			c1.967-1.532,3.298-3.757,5.315-5.232c2.667-1.95,6.013-2.209,9.12-2.976c6.072-1.499,20.253-12.202,13.939-19.599
			C303.365,326.38,291.529,332.649,286.429,334.637z"/>
		<path style="fill:#231815;" d="M294.267,376.842c1.468-8.937,7.977-15.763,16.776-17.345c4.313-0.775,15.914-3.571,17.999,2.255
			c1.374,3.837-2.337,5.943-5.271,7.111c-4.712,1.876-8.271,4.442-11.964,7.945c-3.402,3.227-7.534,8.187-12.718,7.851
			C294.445,384.358,294.944,380.444,294.267,376.842z"/>
		<path style="fill:#231815;" d="M345.184,204.627c3.347,6.71,6.751,21.306-2.189,25.732c-5.924,2.933-9.693-8.255-12.69-11.459
			c-2.488-2.66-6.939-4.653-6.855-8.878c0.083-4.148,4.777-7.199,7.801-9.284c3.491-2.406,6.881-4.308,10.632-1.335
			c0.484,0.383,4.969,7.166,4.08,7.345C345.845,206.773,345.174,204.598,345.184,204.627z"/>
		<path style="fill:#231815;" d="M361.191,200.184c-0.759,7.731,13.442,31.602,18.703,18.675
			C385.512,205.055,376.695,194.747,361.191,200.184z"/>
	</g>
	<path style="fill:#231815;" d="M50.8,133.789c-5.882,0-10.785-7.843-2.941-6.863C55.702,127.906,50.8,133.789,50.8,133.789z"/>
	<path style="fill:#231815;" d="M86.095,116.141c-3.922-1.961-2.941-6.863,0.98-5.882S86.095,116.141,86.095,116.141z"/>
	<path style="fill:#231815;" d="M33.153,53.396c-3.922-1.961-2.941-6.863,0.98-5.882S33.153,53.396,33.153,53.396z"/>
	<path style="fill:#231815;" d="M102.762,121.043c-3.907-0.977-5.235-3.739,0-5.235
		C107.997,114.313,105.753,121.791,102.762,121.043z"/>
	<path style="fill:#231815;" d="M52.761,93.592c-5.022-3.767,2.941-9.804,7.843-7.843S56.683,96.533,52.761,93.592z"/>
	<path style="fill:#231815;" d="M64.526,115.161c-4.902-1.961-5.882-6.863-0.98-6.863C68.448,108.298,64.526,115.161,64.526,115.161
		z"/>
	<path style="fill:#231815;" d="M88.056,73.984c-4.902-1.961-5.882-6.863-0.98-6.863C91.977,67.121,88.056,73.984,88.056,73.984z"/>
	<path style="fill:#231815;" d="M24.33,114.181c-4.902-0.98-2.941-10.785,2.941-7.843C33.153,109.279,24.33,114.181,24.33,114.181z"
		/>
</g>
</svg>
