<?xml version="1.0" encoding="iso-8859-1"?>
<!-- Generator: Adobe Illustrator 21.1.0, SVG Export Plug-In . SVG Version: 6.00 Build 0)  -->
<svg version="1.1" id="_x31_0" xmlns="http://www.w3.org/2000/svg" xmlns:xlink="http://www.w3.org/1999/xlink" x="0px" y="0px"
	 viewBox="0 0 512 512" style="enable-background:new 0 0 512 512;" xml:space="preserve">
<g>
	<path style="fill:#231815;" d="M123.999,46.866c1.171-0.779,12.121-7.228,10.721-9.894c-1.291-2.459-8.473,1.281-9.813,1.939
		c-10.898,5.356-26.59,16.788-29.672,29.314c-4.048,16.455,22.61,14.961,32.333,14.853c16.089-0.177,32.204-0.507,48.293-0.44
		c15.041,0.063,30.721,1.082,44.877,6.603c6.137,2.394,11.435,5.927,17.08,9.227c1.245,0.728,4.646,3.455,6.116,2.46
		c1.72-1.164-1.81-4.987-2.807-6.059c-9.26-9.956-23.729-12.938-36.605-14.425c-14.093-1.628-28.326-1.765-42.494-1.478
		c-16.918,0.343-35.412,2.555-52.083-0.839c-7.857-1.599-12.632-5.063-7.118-12.851C108.159,57.748,116.39,51.884,123.999,46.866z"
		/>
	<path style="fill:#231815;" d="M135.27,85.589c8.01,4.299,15.074,10.767,19.984,18.416c2.408,3.752,4.416,7.899,5.185,12.322
		c0.284,1.631,1.247,8.125-0.727,9.347c1.167-0.722-5.018-13.796-5.449-14.639c-2.915-5.701-7.102-9.571-11.618-13.892
		c-4.736-4.532-9.413-7.05-15.316-9.97c-1.948-0.963-3.763-1.211-1.497-2.416C127.984,83.613,132.952,85.184,135.27,85.589z"/>
	<path style="fill:#231815;" d="M136.714,20c2.997-12.721,11.855-25.52,26.225-17.514c5.303,2.955,8.749,7.886,10.966,13.422
		c0.35,0.875,3.595,14.622,2.487,14.449c-1.413-0.221-6.826-14.454-7.811-16.054c-3.362-5.464-10.459-11.787-17.463-8.926
		c-4.276,1.746-6.906,6.234-8.387,10.327c-1.292,3.571-1.903,7.367-2.456,11.112c-0.252,1.707-0.079,5.775-1.391,7.107
		C138.521,34.291,136.676,21.755,136.714,20z"/>
	<path style="fill:#231815;" d="M211.862,14.939c2.31-5.461,5.007-12.376,11.444-13.813c4.456-0.995,9.738,0.795,13.44,3.105
		c6.018,3.755,10.096,10.039,12.862,16.434c0.316,0.731,4.745,15.203,3.791,15.147c-1.868-0.11-8.242-15.055-9.203-16.7
		c-3.751-6.421-8.745-12.079-16.517-12.881c-4.534-0.468-6.38,0.514-8.812,4.504c-2.184,3.581-4.025,16.243-8.348,18.028
		C210.431,28.799,211.583,16.592,211.862,14.939z"/>
	<path style="fill:#231815;" d="M266.182,24.389c11.985,10.443,22.751,22.159,31.13,35.717c3.835,6.205,7.162,12.729,9.827,19.522
		c0.998,2.544,1.915,5.119,2.658,7.749c0.272,0.961,0.641,5.504,1.182,6.023c-3.714-3.566-6.662-11.671-9.034-16.095
		c-5.061-9.436-10.266-18.588-17.252-26.771c-5.14-6.02-10.215-12.326-16.007-17.737c-1.068-0.997-18.827-16.55-18.336-16.855
		C252.336,14.707,264.124,23.121,266.182,24.389z"/>
	<path style="fill:#231815;" d="M153.772,166.076c-7.172,20.941-18.345,40.575-23.72,62.122c-2.899,11.62-3.278,22.979-3.092,34.846
		c0.165,10.488-0.35,21.378,3.178,31.427c3.383,9.636,10.362,17.506,16.787,25.256c5.216,6.293,10.656,12.471,16.662,18.028
		c2.05,1.897,13.695,12.647,16.41,10.192c-1.781,1.611-8.988-2.36-10.459-3.152c-5.493-2.96-10.408-7.019-14.978-11.229
		c-15.361-14.152-29.893-30.576-31.986-52.101c-1.982-20.39-2.404-42.672,4.126-62.304c5.717-17.19,14.529-33.236,20.65-50.295
		c3.588-10,6.54-20.248,8.58-30.678c0.305-1.56,1.935-17.253,3.375-17.455c0.999-0.14-0.702,20.508-0.923,22.208
		C157.364,150.767,155.766,158.445,153.772,166.076z"/>
	<path style="fill:#231815;" d="M182.755,369.898c4.535,11.718,9.522,23.298,14.618,34.782c5.137,11.577,11.76,22.337,17.224,33.736
		c5.759,12.016,5.137,22.261-6.528,29.983c-4.651,3.078-9.857,5.387-15.061,7.357c-1.026,0.388-9.45,2.463-9.555,2.88
		c0.189-0.751,5.704-3.074,6.291-3.416c3.836-2.234,7.667-4.528,11.367-6.982c6.789-4.503,14.347-9.84,12.474-19.02
		c-1.957-9.589-9.008-18.702-13.676-27.134c-2.653-4.793-5.38-9.597-7.592-14.616c-3.13-7.1-5.582-14.523-8.538-21.7
		c-3.588-8.71-7.376-17.335-10.358-26.28c-0.286-0.857-3.802-15.324-3.167-15.131c2.473,0.752,6.013,12.773,7.232,15.252
		C179.185,363.066,180.943,366.497,182.755,369.898z"/>
	<path style="fill:#231815;" d="M212.761,473.498c-7.157,3.306-13.839,7.574-20.805,11.247c-3.179,1.676-6.41,3.337-9.805,4.537
		c-0.198,0.07-3.909,0.869-3.999,1.013c1.217-1.939,39.938-24.927,41.283-21.832C219.689,469.05,213.548,472.875,212.761,473.498z"
		/>
	<path style="fill:#231815;" d="M224.883,474.444c-7.125,4.241-13.746,9.322-20.443,14.193c-2.993,2.177-5.982,4.373-9.047,6.449
		c-0.576,0.39-3.217,1.608-3.38,2.053c0.925-2.528,36.762-32.807,39.238-28.675C231.587,469.025,225.702,473.663,224.883,474.444z"
		/>
	<path style="fill:#231815;" d="M231.495,481.938c-1.909,1.616-14.464,18.882-16.839,17.217c-0.668-0.468,8.421-12.824,9.36-13.988
		c1.172-1.453,9.421-9.414,10.214-7.796C234.516,477.956,231.915,481.118,231.495,481.938z"/>
	<path style="fill:#231815;" d="M230.283,337.588c-0.968-1.639-10.338-12.067-12.379-6.823c-0.676,1.737,6.403,10.815,7.404,12.813
		c5.764,11.504,10.314,23.767,14.324,35.979c4.02,12.243,7.079,24.739,9.331,37.425c2.516,14.177,5.358,29.318,4.644,43.767
		c-0.71,14.359-10.27,21.09-20.034,29.926c-1.582,1.431-8.648,7.956-4.158,9.036c3.505,0.843,10.709-6.001,13.068-7.954
		c10.069-8.335,15.545-18.901,15.477-32.081c-0.056-10.755-1.411-21.657-3.057-32.272c-2.432-15.686-5.913-31.272-9.73-46.675
		C241.56,366.147,237.824,350.724,230.283,337.588z"/>
	<path style="fill:#231815;" d="M266.161,485.131c-5.004,5.319-10.569,9.885-16.407,14.247c-0.723,0.54-9.933,6.696-9.779,7.297
		c-1.206-4.713,12.175-12.777,15.124-15.42c1.822-1.633,14.194-13.003,14.275-12.905
		C269.994,479.112,266.733,484.095,266.161,485.131z"/>
	<path style="fill:#231815;" d="M277.618,489.16c-6.925,8.209-15.258,17.646-24.968,22.713c-0.047,0.025,0.935-2.146,1-2.286
		c1-2.153,3.043-3.806,4.77-5.327c3.332-2.935,6.455-5.846,9.543-9.035c1.922-1.986,12.239-13.338,12.574-12.935
		C281.169,483.048,278.062,488.178,277.618,489.16z"/>
	<path style="fill:#231815;" d="M336.469,131.676c8.378,14.343,16.994,28.747,23.327,44.144
		c6.418,15.605,8.683,32.031,10.107,48.745c1.435,16.853,1.729,33.802,1.407,50.708c-0.111,5.822-0.315,11.641-0.606,17.456
		c-0.173,3.453,0.938,11.482-1.154,14.167c0.772-0.991-0.48-6.922-0.583-8.198c-0.387-4.803-0.789-9.603-1.077-14.413
		c-0.624-10.421-0.877-20.857-1.223-31.289c-0.745-22.44-1.489-46.804-9.466-68.022c-5.377-14.303-11.73-27.719-19.402-40.949
		c-5.391-9.297-11.067-18.424-16.317-27.804c-0.745-1.331-7.166-16.122-7.399-16.176c1.81,0.42,3.969,5.292,4.875,6.651
		c2.222,3.331,4.503,6.621,6.805,9.897C329.306,121.639,332.896,126.652,336.469,131.676z"/>
	<path style="fill:#231815;" d="M324.147,210.818c2.837,11.103,4.016,22.588,5.358,33.943c1.195,10.108,3.08,20.139,3.365,30.333
		c0.296,10.571-0.752,21.105-1.949,31.595c-0.273,2.39-0.703,19.018-2.755,19.924c0.576-0.254-1.114-20.35-1.094-21.518
		c0.263-14.91,1.776-29.363-0.699-44.198c-1.864-11.178-2.701-22.259-4.198-33.459c-0.97-7.256-2.573-14.404-4.709-21.404
		c-0.951-3.116-2.041-6.176-3.138-9.242c-0.45-1.257-3.116-6.637-2.388-7.996c0.32-0.598,6.594,9.78,6.993,10.547
		C320.874,203.07,322.622,206.901,324.147,210.818z"/>
	<path style="fill:#231815;" d="M322.642,337.724c1.215-4.797,3.477-11.328,9.165-12.156c6.132-0.893,11.058,4.822,12.215,10.15
		c0.479,2.205-0.587,28.213-0.286,28.247c-2.587-0.286-2.002-14.457-1.974-16.133c0.095-5.566,1.027-13.33-3.985-17.067
		c-4.806-3.583-8.878-1.637-11.04,3.553c-1.308,3.14-1.793,6.756-2.152,10.125c-0.164,1.538,0.226,4.358-0.596,5.706
		c-0.176,0.289-1.322-5.532-1.341-5.789C322.478,342.15,322.47,339.932,322.642,337.724z"/>
	<path style="fill:#231815;" d="M356.76,337.535c-0.715,6.527-1.161,13.114-2.536,19.547c-0.272,1.273-4.686,11.783-4.589,11.947
		c-0.925-1.553,0.898-7.545,1.184-9.091c0.79-4.278,1.073-8.492,1.622-12.777c0.325-2.535,3.024-16.565,3.024-16.565
		C356.458,331.266,356.565,336.386,356.76,337.535z"/>
	<path style="fill:#231815;" d="M368.384,339.032c-0.447,2.652-5.217,29.147-5.897,28.953c-4.465-1.275,4.788-35.441,4.75-35.451
		C368.082,332.761,368.241,337.987,368.384,339.032z"/>
	<path style="fill:#231815;" d="M375.1,316.882c3.039,10.765,3.209,21.948,2.086,33.01c-0.217,2.137-1.329,19.576-3.871,20.093
		c0.706-0.143,1.551-28.945,1.47-31.597c-0.128-4.195-0.248-8.572-0.786-12.74c-0.514-3.985-1.715-7.838-2.951-11.646
		c-0.557-1.716-2.483-5.099-1.98-6.946C368.945,307.509,374.355,315.397,375.1,316.882z"/>
	<path style="fill:#231815;" d="M309.654,371.713c-5.369,12.308-12.38,25.378-9.844,39.159c2.657,14.437,6.676,28.525,7.83,43.223
		c0.528,6.726,0.574,13.626-0.939,20.239c-1.39,6.07-4.334,9.91-7.838,14.806c-3.199,4.47-5.309,8.712-9.563,12.454
		c-1.56,1.373-12.83,8.834-12.44,10.406c-0.762-3.073,10.972-12.788,12.763-15.106c2.556-3.307,3.775-7.202,6.076-10.643
		c2.538-3.796,4.95-6.943,6.122-11.483c4.371-16.934-1.137-36.38-5.319-52.837c-1.617-6.366-3.404-12.699-2.8-19.327
		c0.677-7.428,3.619-14.62,6.397-21.471c3.155-7.779,6.721-15.396,9.697-23.247c0.604-1.593,6.385-17.924,4.934-18.77
		c3.434,1.962-0.117,15.081-0.744,17.758C312.812,361.887,311.271,366.827,309.654,371.713z"/>
	<path style="fill:#231815;" d="M350.066,136.536c-1.646,0.937-9.988,6.366-8.602,9.43c1.506,3.327,10.626-3.256,12.99-4.325
		c13.719-6.202,24.891-0.065,32.841,11.737c16.19,24.032,14.142,56.126,14.624,83.828c0.162,9.287-1.737,21.407,1.352,30.385
		c1.497,4.351,3.177,3.436,4.146-0.656c2.452-10.354-0.042-22.201-1.048-32.551c-1.322-13.589-1.325-27.265-2.489-40.868
		C401.755,168.667,384.49,117.028,350.066,136.536z"/>
	<path style="fill:#231815;" d="M333.012,106.658c-2.066-0.255-15.339-2.186-16.297,1.346c-0.739,2.724,9.282,4.066,10.429,4.284
		c17.146,3.25,35.646,3.175,51.872,10.215c16.27,7.058,22.203,22.278,26.075,38.519c4.189,17.566,5.272,35.722,5.772,53.718
		c0.478,17.19-0.721,34.62,0.505,51.769c0.126,1.764,0.412,10.775,3.349,9.999c1.717-0.454,1.868-7.056,1.991-8.391
		c1.41-15.337-0.713-30.847-1.556-46.151c-0.88-15.973-1.143-32.022-3.662-47.852c-2.856-17.948-7.423-39.581-22.694-51.202
		C373.431,111.217,351.563,109.091,333.012,106.658z"/>
	<path style="fill:#231815;" d="M296.107,123.296c-8.632,19.784-8.561,43.584-5.462,64.568c1.574,10.66,4.042,21.575,8.762,31.323
		c1.992,4.115,4.468,8.445,8.126,11.302c1.008,0.788,7.605,4.557,8.383,3.221c-0.826,1.418-6.821-0.327-7.893-0.75
		c-2.48-0.98-4.677-2.758-6.527-4.643c-4.713-4.801-7.69-11.229-9.881-17.498c-4.998-14.301-7.057-29.706-7.675-44.788
		c-0.478-11.686,1.364-23.396,4.514-34.648c1.997-7.136,4.692-14.177,8.986-20.269c1.831-2.598,3.921-5.074,6.364-7.121
		c0.23-0.193,5.444-3.76,5.458-3.005c0.024,1.285-2.951,3.322-3.689,4.161c-1.856,2.112-3.443,4.464-4.821,6.911
		C298.764,115.592,297.241,119.407,296.107,123.296z"/>
	<path style="fill:#231815;" d="M145.32,131.324c-6.544,10.41-10.15,22.865-12.489,34.84c-1.192,6.103-2.13,12.385-2.079,18.615
		c0.005,0.612,1.536,14.389,3.161,13.521c-1.615,0.862-5.438-6.771-5.723-7.528c-1.36-3.612-1.535-7.644-1.424-11.461
		c0.263-9.074,2.168-18.23,4.272-27.031c1.406-5.882,4.133-11.367,6.799-16.778c2.055-4.172,4.207-8.409,7.311-11.919
		c0.133-0.151,8.295-7.027,8.293-4.763c-0.001,1.067-4.15,4.622-4.708,5.471C147.309,126.459,146.214,128.893,145.32,131.324z"/>
	<path style="fill:#231815;" d="M152.447,35.028c-4.493-5.989-1.971-18.387,3.939-13.791
		C162.297,25.835,156.387,40.282,152.447,35.028z"/>
	<path style="fill:#231815;" d="M226.657,42.91c-10.668-0.711-5.254-17.731,1.312-16.419
		C234.538,27.806,236.507,43.566,226.657,42.91z"/>
	<path style="fill:#231815;" d="M157.702,71.149c-9.852-3.283-4.598-9.194-0.659-7.223
		C160.985,65.895,157.702,71.149,157.702,71.149z"/>
	<path style="fill:#231815;" d="M184.626,72.464c-6.566,1.312-0.656-7.881,3.939-7.881
		C193.164,64.582,187.909,71.805,184.626,72.464z"/>
	<path style="fill:#231815;" d="M323.693,127.532c2.022-2.575,4.339-8.258-0.958-8.029c-3.296,0.143-6.312,4.668-7.796,7.091
		c-4.002,6.533-4.776,14.269-5.828,21.699c-1.302,9.191-2.886,18.347-3.159,27.646c-0.212,7.217-0.51,18.145,3.943,24.356
		c1.343,1.873,3.797,4.258,5.714,1.925c1.604-1.952-0.359-6.477-1.015-8.579c-2.387-7.652-4.809-14.308-4.444-22.444
		C310.843,155.728,313.811,139.941,323.693,127.532z"/>
	<path style="fill:#231815;" d="M185.339,11.19c3.514,0.092,19.476-1.509,21.241,2.773c0.694,1.684-14.137,2.477-15.584,2.46
		c-2.08-0.024-6.641,0.104-8.32-0.868C179.323,13.613,183.182,12.553,185.339,11.19z"/>
	<path style="fill:#231815;" d="M127.296,190.176c-1.361,10.739-1.323,21.613-2.451,32.377c-0.094,0.895-5.113,25.474-6.577,24.359
		c-1.415-1.079,1.091-14.799,1.267-16.275c0.926-7.764,0.911-15.399,1.242-23.174c0.134-3.157,0.802-6.26,1.142-9.403
		c0.414-3.829-0.374-17.837,3.867-20.247C125.819,177.794,127.108,188.655,127.296,190.176z"/>
	<path style="fill:#231815;" d="M129.517,314.236c1.25,8.974,3.715,18.001,7.309,26.32c0.857,1.985,6.294,14.064,9.876,12.748
		c-10.516,3.861-17.829-20.816-19.151-27.827c-0.963-5.108-4.216-14.064-2.339-19.027
		C126.781,302.301,128.771,312.415,129.517,314.236z"/>
	<path style="fill:#231815;" d="M143.53,336.166c-1.03,3.176,5.696,10.311,3.519,12.69c-1.336,1.46-5.417-4.98-5.708-5.441
		C138.956,339.632,140.019,328.185,143.53,336.166z"/>
	<path style="fill:#231815;" d="M155.186,338.12c-0.815,2.238,1.274,14.506-0.681,15.255c-2.222,0.85-3.322-6.85-3.505-7.827
		C150.253,341.565,152.735,328.964,155.186,338.12z"/>
	<path style="fill:#231815;" d="M375.652,291.973c5.592-2.704,11.06-5.838,16.106-9.469c4.407-3.171,7.247-7.709,11.317-11.001
		c-0.052,0.042-0.367,5.435-0.794,6.392c-1.478,3.31-4.805,5.819-7.54,8.046c-2.862,2.331-5.731,4.706-9.019,6.335
		c-3.499,1.734-9.994,6.532-13.962,6.063C367.7,297.859,374.227,293.497,375.652,291.973z"/>
	<path style="fill:#231815;" d="M415.436,280.047c-1.819,3.269-6.21,5.568-9.971,4.907c-3.954-0.695-4.613-2.358-1.102-3.968
		c2.05-0.94,4.53-1.154,6.361-2.333C413.284,277.004,414.723,274.897,415.436,280.047z"/>
	<path style="fill:#231815;" d="M337.643,171.957c-3.144-0.179-6.819,4.375-6.923,7.397c-0.132,3.835,1.281,2.549,4.345,4.058
		c2.696,1.328,2.055,1.592,4.14,3.865c1.139,1.242,2.803,2.457,4.428,3.004c3.03,1.02,5.938,0.233,7.787-2.373
		C357.366,179.525,347.451,163.531,337.643,171.957z"/>
	<path style="fill:#231815;" d="M350.451,204.958c-4.26,0.573-10.464,6.114-7.969,10.924c1.244,2.398,2.808,1.745,5.163,2.36
		c1.947,0.508,3.924,2.09,5.881,2.356c5.311,0.723,5.568-6.603,5.345-10.336C358.548,204.88,355.163,204.969,350.451,204.958z"/>
	<path style="fill:#231815;" d="M257.852,355.677c6.306-1.109,17.741-1.73,21.861,4.554c4.14,6.314-5.817,7.31-9.915,7.743
		c-5.018,0.53-19.009,5.328-20.443-2.882C248.925,362.629,255.925,352.264,257.852,355.677z"/>
	<path style="fill:#231815;" d="M259.328,388.677c4.739-0.574,11.726,0.824,14.885,4.744c4.315,5.356-1.601,7.148-6.14,7.809
		c-3.81,0.555-10.249,2.36-13.469-0.565C250.162,396.63,255.441,390.621,259.328,388.677z"/>
	<path style="fill:#231815;" d="M194.806,356.169c4.51-0.656,12.839-2.203,16.6,1.235c6.669,6.096-4.867,8.947-8.838,9.239
		c-4.687,0.346-13.772,2.898-17.029-1.623C181.803,359.833,190.111,352.99,194.806,356.169z"/>
	<path style="fill:#231815;" d="M203.672,389.169c3.816-0.455,9.629-0.706,13.026,1.418c5.611,3.509-0.113,7.085-4.061,8.195
		c-3.361,0.945-8.245,2.21-10.897-0.563c-1.273-1.332-2.4-4.262-1.573-6.037C200.507,391.453,203.861,389.618,203.672,389.169z"/>
</g>
</svg>
