<?xml version="1.0" encoding="iso-8859-1"?>
<!-- Generator: Adobe Illustrator 21.1.0, SVG Export Plug-In . SVG Version: 6.00 Build 0)  -->
<svg version="1.1" id="_x31_2" xmlns="http://www.w3.org/2000/svg" xmlns:xlink="http://www.w3.org/1999/xlink" x="0px" y="0px"
	 viewBox="0 0 512 512" style="enable-background:new 0 0 512 512;" xml:space="preserve">
<g>
	<path style="fill:#FFE100;" d="M313.638,107.258c9.737,1.217,56.597,7.911,70.595,15.214c13.997,7.303,22.517,29.211,24.343,46.252
		c1.826,17.04,6.086,83.375,6.694,93.112c0.609,9.737-0.609,17.649-0.609,17.649s-6.086,4.26-10.346,3.043
		c-4.26-1.217-1.217-9.129-1.217-9.129s-27.386,21.3-36.514,24.952c-9.129,3.651-65.117-175.269-65.117-175.269L313.638,107.258z"/>
	<path style="fill:#FFE100;" d="M331.895,150.467c10.954-6.694,21.909-12.172,34.08-13.997
		c12.172-1.826,28.603,18.866,31.037,35.906c2.434,17.04,7.303,88.852,7.911,94.938c0.609,6.086-1.826,6.086-1.826,6.086
		s-23.126,18.866-31.037,22.517c-7.911,3.652-8.52-7.303-8.52-7.303L331.895,150.467z"/>
	<path style="fill:#94C85C;" d="M120.112,82.306c-12.121-1.102-31.037-8.52-16.431-21.909s34.164-22.21,34.689-24.343
		c0.524-2.133-2.434-19.474,6.694-27.386c9.129-7.911,18.257-3.043,22.517,2.434c4.26,5.477,21.909,2.434,26.169,2.434
		c4.26,0,21.909-0.609,21.909-0.609s3.253-10.776,12.171-9.737s16.432,10.346,16.432,10.346s17.649,7.911,26.777,17.649
		c9.129,9.737,33.471,41.992,38.949,57.206c5.477,15.214,28.603,52.337,41.383,76.68c12.78,24.343,17.649,73.029,17.649,83.983
		c0,10.954,1.217,60.249,1.217,60.249s8.52,34.08,4.869,46.86c-3.651,12.78-8.52,21.3-7.911,12.78
		c0.609-8.52-1.217-17.649-1.217-17.649s-0.609,14.606-10.954,21.3c-10.346,6.694,0-14.606,0-24.343
		c1.826,4.26-8.52,26.169-10.954,24.343c-2.434-1.826,0.609-15.823,0-27.386c-0.609-11.563-5.477-18.866-12.171-17.649
		c-6.694,1.217-9.126,15.175-8.52,18.866c0.606,3.691-5.477,3.043-6.694-4.869c-1.217-7.911-4.869,21.909-11.563,36.514
		c-6.694,14.606-9.737,21.909-9.129,26.777c0.609,4.869,8.52,49.903,8.52,60.857c0,10.954-10.346,31.646-18.866,37.732
		c-8.52,6.086-15.214,10.954-12.171,7.303c3.043-3.651,4.376-13.673,4.26-17.649c-0.117-3.976-12.172,11.563-27.386,17.649
		c-15.214,6.086,11.563-18.866,13.389-23.126c1.826-4.26-18.257,10.346-28.603,13.389c-10.346,3.043,0-6.086,5.477-11.563
		c5.477-5.477,3.651-10.346,0-6.694c-3.652,3.651-14.606,11.563-22.517,15.214c-7.911,3.651,7.911-11.563,10.346-14.606
		c2.434-3.043-18.257,7.303-27.994,10.954c-9.737,3.651,0-6.086,9.129-13.997c9.129-7.911-6.694-1.826-19.474,3.043
		c-12.78,4.869-1.217-3.651,12.171-12.78c13.389-9.129,15.823-17.649,13.389-24.343c-2.434-6.694-24.952-51.12-28.603-59.64
		c-3.652-8.52-17.649-43.209-17.649-43.209s-6.086-6.086-10.346-10.954c-4.26-4.869-0.609,12.171-2.434,15.823
		c-1.826,3.651-3.652-4.26-3.652-4.26s0.609,11.563-3.043,6.086c-3.651-5.477-8.52-16.432-8.52-16.432s7.303,20.692,2.434,17.649
		c-4.869-3.043-15.214-27.994-15.823-48.077c-0.609-20.083-5.477-80.94-3.043-99.806c2.434-18.866,4.26-24.343,4.26-24.343
		l35.906-78.506l-24.343-18.866C140.803,81.698,126.806,82.915,120.112,82.306z"/>
	<path style="fill:#FFFFFF;" d="M234.523,90.826c10.346,6.086,20.691,23.126,12.172,30.429c-8.52,7.303,0.609,39.557,22.517,75.463
		c21.909,35.906,18.257,99.806,4.869,117.455c-13.389,17.649-60.857,29.212-78.506,28.603c-17.649-0.608-32.863-4.869-41.383-11.563
		c-8.52-6.694-28.603-37.732-31.646-52.946c-3.043-15.214,4.26-53.555,10.346-65.117c6.086-11.563,18.257-51.12,22.517-60.857
		c4.26-9.737,5.477-34.689,3.651-38.34c-1.826-3.651-15.214-20.692-20.692-24.343c-5.477-3.651-13.997-7.911-13.997-7.911
		s38.34,0.609,50.512,0C187.055,81.089,218.092,82.306,234.523,90.826z"/>
	<path style="fill:#FFE100;" d="M311.001,97.115c2.434-0.811,16.229,21.3,16.229,26.777c0,5.477-2.637-4.463-4.463-0.203
		c-1.826,4.26-23.734,51.729-6.694,77.289c6.086,10.346,7.303,23.126,8.52,29.212c1.217,6.086-1.826,9.737-15.214,0
		c-13.389-9.737-18.866-28.603-21.3-49.903s0.609-45.035,2.434-51.729C292.338,121.864,311.001,97.115,311.001,97.115z"/>
	<path style="fill:#FFE100;" d="M158.452,118.212c0.861,2.511-2.434,23.734-6.086,40.166c-3.651,16.432-14.606,38.34-15.823,41.992
		c-1.217,3.651-10.346-17.04-6.086-36.514c4.26-19.474,12.171-32.863,15.214-37.732
		C148.715,121.255,158.452,118.212,158.452,118.212z"/>
	<g>
		<path style="fill:#231815;" d="M124.01,46.861c1.171-0.779,12.119-7.228,10.72-9.893c-1.291-2.459-8.472,1.281-9.812,1.939
			c-10.897,5.355-26.588,16.786-29.669,29.311c-4.048,16.453,22.609,14.959,32.331,14.852c16.087-0.177,32.201-0.507,48.289-0.44
			c15.04,0.063,30.719,1.082,44.874,6.603c6.136,2.393,11.434,5.926,17.078,9.226c1.245,0.728,4.645,3.455,6.115,2.46
			c1.72-1.164-1.81-4.987-2.807-6.058c-9.26-9.956-23.727-12.937-36.602-14.424c-14.092-1.628-28.324-1.764-42.49-1.477
			c-16.916,0.343-35.409,2.554-52.078-0.839c-7.857-1.599-12.631-5.062-7.117-12.85C108.171,57.743,116.402,51.88,124.01,46.861z"/>
		<path style="fill:#231815;" d="M135.281,85.582c8.009,4.298,15.073,10.766,19.983,18.415c2.408,3.751,4.415,7.898,5.184,12.321
			c0.284,1.631,1.247,8.125-0.727,9.346c1.167-0.722-5.018-13.795-5.449-14.638c-2.914-5.701-7.101-9.57-11.617-13.891
			c-4.735-4.532-9.412-7.05-15.315-9.969c-1.948-0.963-3.763-1.211-1.497-2.416C127.995,83.606,132.963,85.176,135.281,85.582z"/>
		<path style="fill:#231815;" d="M136.724,19.999c2.997-12.72,11.854-25.518,26.222-17.512c5.302,2.954,8.749,7.885,10.965,13.421
			c0.35,0.875,3.594,14.621,2.487,14.448c-1.413-0.221-6.826-14.453-7.81-16.052c-3.362-5.463-10.458-11.786-17.462-8.926
			c-4.276,1.746-6.905,6.234-8.386,10.327c-1.292,3.571-1.903,7.366-2.456,11.111c-0.252,1.707-0.079,5.774-1.391,7.106
			C138.532,34.288,136.686,21.753,136.724,19.999z"/>
		<path style="fill:#231815;" d="M211.866,14.938c2.31-5.46,5.007-12.375,11.443-13.812c4.456-0.995,9.737,0.795,13.438,3.104
			c6.018,3.755,10.095,10.038,12.861,16.433c0.316,0.731,4.744,15.202,3.791,15.146c-1.867-0.11-8.241-15.054-9.202-16.699
			c-3.751-6.421-8.744-12.078-16.516-12.88c-4.533-0.468-6.379,0.514-8.812,4.503c-2.184,3.58-4.025,16.241-8.347,18.027
			C210.435,28.796,211.587,16.59,211.866,14.938z"/>
		<path style="fill:#231815;" d="M266.181,24.387c11.984,10.443,22.749,22.158,31.127,35.714c3.835,6.204,7.162,12.728,9.826,19.52
			c0.998,2.544,1.915,5.118,2.658,7.748c0.272,0.961,0.641,5.504,1.181,6.023c-3.714-3.566-6.661-11.67-9.033-16.093
			c-5.06-9.436-10.265-18.587-17.251-26.769c-5.14-6.02-10.214-12.325-16.005-17.736c-1.067-0.997-18.825-16.549-18.334-16.854
			C252.337,14.706,264.124,23.119,266.181,24.387z"/>
		<path style="fill:#231815;" d="M153.781,166.061c-7.171,20.94-18.344,40.571-23.718,62.116
			c-2.898,11.619-3.278,22.977-3.092,34.843c0.164,10.487-0.35,21.376,3.178,31.424c3.383,9.635,10.361,17.504,16.785,25.254
			c5.216,6.292,10.655,12.469,16.66,18.026c2.05,1.897,13.693,12.646,16.409,10.191c-1.781,1.61-8.987-2.36-10.458-3.152
			c-5.493-2.96-10.407-7.018-14.976-11.228c-15.359-14.15-29.891-30.573-31.983-52.097c-1.982-20.388-2.403-42.668,4.125-62.298
			c5.717-17.189,14.528-33.233,20.648-50.29c3.588-9.999,6.54-20.246,8.579-30.675c0.305-1.56,1.935-17.251,3.375-17.454
			c0.999-0.14-0.702,20.506-0.923,22.206C157.373,150.754,155.775,158.432,153.781,166.061z"/>
		<path style="fill:#231815;" d="M182.761,369.866c4.535,11.717,9.521,23.296,14.616,34.779
			c5.136,11.576,11.759,22.335,17.222,33.732c5.758,12.015,5.136,22.259-6.527,29.98c-4.65,3.078-9.856,5.386-15.059,7.357
			c-1.026,0.388-9.449,2.462-9.555,2.88c0.189-0.751,5.703-3.074,6.291-3.416c3.836-2.234,7.666-4.528,11.366-6.982
			c6.788-4.503,14.346-9.839,12.473-19.018c-1.957-9.588-9.007-18.701-13.675-27.132c-2.653-4.792-5.38-9.596-7.592-14.614
			c-3.129-7.099-5.581-14.522-8.538-21.698c-3.588-8.709-7.375-17.334-10.357-26.278c-0.286-0.857-3.801-15.323-3.167-15.13
			c2.473,0.752,6.012,12.772,7.231,15.251C179.191,363.035,180.949,366.465,182.761,369.866z"/>
		<path style="fill:#231815;" d="M212.765,473.458c-7.156,3.305-13.838,7.573-20.803,11.246c-3.179,1.676-6.41,3.337-9.804,4.536
			c-0.198,0.07-3.908,0.869-3.999,1.013c1.217-1.939,39.935-24.925,41.28-21.83C219.692,469.009,213.552,472.834,212.765,473.458z"
			/>
		<path style="fill:#231815;" d="M224.886,474.402c-7.124,4.241-13.745,9.321-20.441,14.192c-2.993,2.177-5.981,4.373-9.046,6.448
			c-0.576,0.39-3.217,1.608-3.38,2.053c0.925-2.528,36.759-32.805,39.234-28.672C231.589,468.985,225.705,473.622,224.886,474.402z"
			/>
		<path style="fill:#231815;" d="M231.497,481.897c-1.909,1.616-14.463,18.881-16.838,17.216c-0.668-0.468,8.42-12.823,9.359-13.987
			c1.172-1.453,9.421-9.413,10.213-7.795C234.518,477.915,231.917,481.076,231.497,481.897z"/>
		<path style="fill:#231815;" d="M230.285,337.559c-0.968-1.638-10.337-12.066-12.378-6.823c-0.676,1.737,6.402,10.814,7.403,12.812
			c5.764,11.503,10.313,23.765,14.323,35.976c4.02,12.242,7.079,24.737,9.33,37.422c2.516,14.175,5.358,29.316,4.644,43.763
			c-0.71,14.358-10.269,21.088-20.032,29.923c-1.581,1.431-8.647,7.955-4.158,9.035c3.505,0.843,10.708-6,13.066-7.953
			c10.068-8.335,15.544-18.9,15.476-32.078c-0.056-10.754-1.411-21.655-3.056-32.27c-2.432-15.685-5.913-31.269-9.729-46.671
			C241.561,366.116,237.825,350.694,230.285,337.559z"/>
		<path style="fill:#231815;" d="M266.16,485.089c-5.003,5.318-10.568,9.884-16.406,14.245c-0.723,0.54-9.932,6.695-9.779,7.296
			c-1.206-4.713,12.174-12.776,15.122-15.419c1.822-1.633,14.193-13.002,14.273-12.904
			C269.993,479.07,266.732,484.053,266.16,485.089z"/>
		<path style="fill:#231815;" d="M277.616,489.118c-6.925,8.208-15.256,17.644-24.966,22.711c-0.047,0.025,0.935-2.146,1-2.286
			c1-2.152,3.043-3.806,4.77-5.327c3.332-2.935,6.455-5.846,9.542-9.035c1.922-1.985,12.238-13.337,12.573-12.934
			C281.167,483.007,278.06,488.136,277.616,489.118z"/>
		<path style="fill:#231815;" d="M336.462,131.665c8.378,14.341,16.993,28.744,23.325,44.14
			c6.418,15.603,8.683,32.028,10.106,48.741c1.435,16.852,1.729,33.799,1.406,50.703c-0.111,5.821-0.315,11.64-0.606,17.454
			c-0.173,3.453,0.938,11.481-1.154,14.166c0.772-0.991-0.48-6.921-0.583-8.197c-0.387-4.802-0.789-9.602-1.077-14.412
			c-0.624-10.42-0.877-20.855-1.223-31.286c-0.745-22.438-1.489-46.8-9.465-68.016c-5.377-14.302-11.73-27.716-19.401-40.945
			c-5.39-9.296-11.066-18.423-16.316-27.801c-0.745-1.331-7.165-16.121-7.398-16.175c1.81,0.42,3.968,5.292,4.875,6.65
			c2.222,3.33,4.503,6.62,6.804,9.896C329.3,121.629,332.889,126.641,336.462,131.665z"/>
		<path style="fill:#231815;" d="M324.141,210.8c2.837,11.102,4.016,22.586,5.358,33.94c1.195,10.107,3.079,20.137,3.364,30.33
			c0.296,10.57-0.752,21.104-1.949,31.592c-0.273,2.39-0.703,19.016-2.754,19.922c0.576-0.254-1.114-20.349-1.094-21.516
			c0.263-14.909,1.775-29.361-0.699-44.194c-1.864-11.177-2.701-22.257-4.198-33.456c-0.97-7.255-2.573-14.402-4.709-21.403
			c-0.951-3.116-2.041-6.175-3.138-9.242c-0.45-1.257-3.116-6.636-2.388-7.995c0.32-0.598,6.593,9.779,6.992,10.546
			C320.869,203.052,322.617,206.883,324.141,210.8z"/>
		<path style="fill:#231815;" d="M322.636,337.694c1.215-4.797,3.477-11.327,9.164-12.155c6.131-0.893,11.057,4.821,12.213,10.149
			c0.479,2.204-0.587,28.211-0.286,28.244c-2.587-0.286-2.002-14.456-1.974-16.132c0.095-5.565,1.027-13.329-3.985-17.065
			c-4.806-3.582-8.878-1.637-11.04,3.553c-1.308,3.139-1.793,6.755-2.152,10.124c-0.164,1.538,0.226,4.358-0.596,5.706
			c-0.176,0.289-1.322-5.531-1.341-5.789C322.472,342.12,322.464,339.903,322.636,337.694z"/>
		<path style="fill:#231815;" d="M356.752,337.505c-0.715,6.526-1.161,13.112-2.536,19.545c-0.272,1.273-4.686,11.782-4.588,11.946
			c-0.925-1.553,0.898-7.545,1.184-9.09c0.79-4.278,1.073-8.491,1.622-12.776c0.325-2.535,3.024-16.564,3.024-16.564
			C356.45,331.238,356.557,336.357,356.752,337.505z"/>
		<path style="fill:#231815;" d="M368.374,339.003c-0.447,2.652-5.217,29.145-5.897,28.951c-4.464-1.275,4.787-35.438,4.75-35.448
			C368.072,332.732,368.232,337.958,368.374,339.003z"/>
		<path style="fill:#231815;" d="M375.09,316.854c3.039,10.764,3.208,21.946,2.086,33.008c-0.217,2.137-1.329,19.574-3.87,20.091
			c0.706-0.144,1.551-28.943,1.47-31.595c-0.128-4.195-0.248-8.571-0.785-12.738c-0.514-3.985-1.715-7.838-2.951-11.646
			c-0.557-1.716-2.482-5.099-1.98-6.946C368.935,307.483,374.344,315.37,375.09,316.854z"/>
		<path style="fill:#231815;" d="M309.649,371.681c-5.369,12.307-12.379,25.376-9.843,39.156c2.656,14.435,6.676,28.522,7.829,43.22
			c0.528,6.725,0.574,13.625-0.94,20.237c-1.39,6.07-4.334,9.909-7.837,14.805c-3.199,4.469-5.309,8.711-9.562,12.453
			c-1.56,1.373-12.829,8.833-12.439,10.405c-0.762-3.073,10.971-12.787,12.762-15.104c2.556-3.306,3.775-7.202,6.075-10.642
			c2.538-3.796,4.949-6.942,6.121-11.482c4.371-16.932-1.137-36.377-5.318-52.832c-1.617-6.365-3.404-12.698-2.799-19.325
			c0.677-7.427,3.618-14.618,6.397-21.47c3.154-7.778,6.721-15.394,9.696-23.245c0.604-1.593,6.385-17.923,4.933-18.768
			c3.434,1.962-0.117,15.08-0.744,17.757C312.807,361.856,311.267,366.796,309.649,371.681z"/>
		<path style="fill:#231815;" d="M350.057,136.524c-1.646,0.937-9.987,6.366-8.601,9.429c1.506,3.326,10.625-3.256,12.989-4.325
			c13.718-6.202,24.888-0.065,32.839,11.736c16.189,24.029,14.14,56.121,14.623,83.82c0.162,9.286-1.737,21.405,1.352,30.383
			c1.497,4.351,3.177,3.436,4.146-0.656c2.452-10.353-0.041-22.199-1.048-32.549c-1.322-13.588-1.325-27.263-2.489-40.864
			C401.743,168.653,384.479,117.018,350.057,136.524z"/>
		<path style="fill:#231815;" d="M333.005,106.649c-2.065-0.255-15.338-2.186-16.296,1.346c-0.739,2.724,9.281,4.066,10.429,4.283
			c17.145,3.25,35.642,3.175,51.868,10.214c16.268,7.058,22.201,22.276,26.073,38.515c4.188,17.565,5.271,35.719,5.771,53.713
			c0.478,17.189-0.721,34.617,0.505,51.764c0.126,1.764,0.412,10.774,3.349,9.998c1.717-0.453,1.868-7.056,1.991-8.39
			c1.409-15.336-0.713-30.845-1.556-46.147c-0.88-15.971-1.143-32.019-3.662-47.848c-2.856-17.947-7.422-39.577-22.692-51.198
			C373.421,111.208,351.555,109.081,333.005,106.649z"/>
		<path style="fill:#231815;" d="M296.104,123.285c-8.631,19.782-8.56,43.581-5.462,64.562c1.574,10.659,4.042,21.573,8.761,31.32
			c1.992,4.115,4.467,8.444,8.125,11.301c1.008,0.787,7.604,4.556,8.382,3.221c-0.826,1.418-6.82-0.327-7.892-0.75
			c-2.48-0.98-4.677-2.758-6.527-4.642c-4.713-4.801-7.689-11.228-9.88-17.497c-4.997-14.3-7.057-29.703-7.674-44.784
			c-0.478-11.685,1.364-23.394,4.513-34.645c1.997-7.136,4.692-14.175,8.986-20.267c1.831-2.598,3.921-5.074,6.363-7.12
			c0.23-0.193,5.444-3.76,5.458-3.005c0.024,1.285-2.95,3.321-3.688,4.161c-1.856,2.112-3.443,4.463-4.82,6.911
			C298.761,115.582,297.238,119.397,296.104,123.285z"/>
		<path style="fill:#231815;" d="M145.329,131.313c-6.543,10.409-10.149,22.863-12.488,34.837
			c-1.192,6.102-2.13,12.384-2.078,18.613c0.005,0.612,1.536,14.388,3.161,13.52c-1.615,0.862-5.438-6.771-5.723-7.528
			c-1.36-3.612-1.535-7.643-1.424-11.46c0.263-9.073,2.168-18.228,4.272-27.029c1.406-5.881,4.133-11.366,6.799-16.777
			c2.055-4.172,4.206-8.408,7.311-11.917c0.133-0.151,8.295-7.026,8.292-4.763c-0.001,1.067-4.15,4.621-4.708,5.47
			C147.319,126.448,146.224,128.882,145.329,131.313z"/>
		<path style="fill:#231815;" d="M152.456,35.025c-4.493-5.988-1.971-18.386,3.939-13.79
			C162.305,25.832,156.395,40.279,152.456,35.025z"/>
		<path style="fill:#231815;" d="M226.66,42.906c-10.667-0.711-5.254-17.729,1.312-16.417
			C234.54,27.803,236.508,43.562,226.66,42.906z"/>
		<path style="fill:#231815;" d="M157.71,71.143c-9.851-3.283-4.598-9.193-0.659-7.222C160.993,65.889,157.71,71.143,157.71,71.143z
			"/>
		<path style="fill:#231815;" d="M184.632,72.457c-6.566,1.312-0.656-7.881,3.939-7.881
			C193.169,64.577,187.915,71.799,184.632,72.457z"/>
		<path style="fill:#231815;" d="M323.687,127.521c2.022-2.575,4.339-8.258-0.958-8.028c-3.295,0.143-6.311,4.668-7.795,7.09
			c-4.001,6.533-4.775,14.268-5.827,21.697c-1.302,9.19-2.886,18.346-3.159,27.644c-0.212,7.216-0.51,18.143,3.943,24.354
			c1.343,1.873,3.797,4.257,5.713,1.925c1.604-1.952-0.359-6.477-1.015-8.578c-2.387-7.651-4.808-14.307-4.444-22.442
			C310.838,155.714,313.807,139.929,323.687,127.521z"/>
		<path style="fill:#231815;" d="M185.345,11.189c3.514,0.092,19.474-1.509,21.239,2.772c0.694,1.684-14.135,2.476-15.583,2.459
			c-2.08-0.024-6.64,0.104-8.32-0.868C179.329,13.612,183.188,12.552,185.345,11.189z"/>
		<path style="fill:#231815;" d="M127.307,190.159c-1.361,10.738-1.323,21.611-2.45,32.374c-0.094,0.895-5.113,25.472-6.576,24.356
			c-1.415-1.078,1.091-14.798,1.267-16.274c0.925-7.763,0.911-15.397,1.241-23.172c0.134-3.157,0.802-6.259,1.142-9.402
			c0.414-3.829-0.374-17.835,3.866-20.246C125.83,177.778,127.119,188.639,127.307,190.159z"/>
		<path style="fill:#231815;" d="M129.528,314.208c1.25,8.973,3.715,17.999,7.308,26.318c0.857,1.984,6.293,14.062,9.875,12.747
			c-10.515,3.861-17.828-20.814-19.149-27.825c-0.963-5.107-4.216-14.063-2.339-19.025
			C126.793,302.275,128.782,312.388,129.528,314.208z"/>
		<path style="fill:#231815;" d="M143.539,336.137c-1.029,3.175,5.696,10.31,3.519,12.689c-1.335,1.46-5.417-4.98-5.707-5.44
			C138.966,339.603,140.029,328.156,143.539,336.137z"/>
		<path style="fill:#231815;" d="M155.195,338.09c-0.815,2.238,1.274,14.505-0.681,15.253c-2.222,0.85-3.322-6.85-3.505-7.826
			C150.263,341.535,152.744,328.935,155.195,338.09z"/>
		<path style="fill:#231815;" d="M375.641,291.948c5.592-2.704,11.059-5.838,16.104-9.468c4.407-3.171,7.246-7.708,11.316-11
			c-0.052,0.042-0.367,5.434-0.794,6.391c-1.478,3.309-4.804,5.818-7.539,8.046c-2.862,2.331-5.73,4.706-9.018,6.335
			c-3.498,1.734-9.993,6.532-13.961,6.063C367.69,297.834,374.216,293.471,375.641,291.948z"/>
		<path style="fill:#231815;" d="M415.422,280.023c-1.818,3.269-6.209,5.568-9.97,4.907c-3.954-0.695-4.613-2.358-1.102-3.968
			c2.05-0.94,4.53-1.154,6.361-2.333C413.271,276.98,414.709,274.874,415.422,280.023z"/>
		<path style="fill:#231815;" d="M337.636,171.943c-3.144-0.178-6.818,4.375-6.922,7.396c-0.132,3.834,1.28,2.549,4.345,4.058
			c2.696,1.328,2.055,1.592,4.139,3.865c1.139,1.242,2.802,2.456,4.428,3.004c3.03,1.02,5.938,0.233,7.786-2.373
			C357.358,179.51,347.443,163.517,337.636,171.943z"/>
		<path style="fill:#231815;" d="M350.443,204.94c-4.26,0.573-10.464,6.113-7.969,10.923c1.244,2.398,2.808,1.745,5.163,2.359
			c1.947,0.508,3.924,2.09,5.88,2.356c5.311,0.723,5.568-6.603,5.345-10.335C358.539,204.863,355.154,204.952,350.443,204.94z"/>
		<path style="fill:#231815;" d="M257.851,355.646c6.305-1.109,17.74-1.73,21.859,4.553c4.14,6.314-5.816,7.31-9.914,7.742
			c-5.017,0.529-19.007,5.328-20.441-2.881C248.925,362.598,255.925,352.234,257.851,355.646z"/>
		<path style="fill:#231815;" d="M259.328,388.643c4.739-0.574,11.725,0.824,14.884,4.744c4.314,5.355-1.601,7.148-6.14,7.808
			c-3.81,0.555-10.249,2.359-13.468-0.565C250.163,396.595,255.441,390.587,259.328,388.643z"/>
		<path style="fill:#231815;" d="M194.812,356.138c4.51-0.656,12.838-2.203,16.599,1.234c6.668,6.095-4.866,8.946-8.837,9.238
			c-4.687,0.345-13.771,2.898-17.028-1.623C181.809,359.802,190.117,352.96,194.812,356.138z"/>
		<path style="fill:#231815;" d="M203.676,389.136c3.816-0.455,9.629-0.706,13.025,1.418c5.61,3.509-0.113,7.084-4.061,8.194
			c-3.361,0.945-8.245,2.21-10.896-0.563c-1.273-1.332-2.4-4.262-1.572-6.036C200.512,391.419,203.865,389.584,203.676,389.136z"/>
	</g>
</g>
</svg>
